#!OML:ASF H:\Not Pregnant\Project 1\Capture day 1\Session 1\non-pregnant.ASF
:FULLY-SPECIFIED
:DEGREES
302
root -6.84511 16.2619 2.76701 -172.266 2.32183 -171.658
lowerback 2.52701 3.41098 9.38531
upperback -6.17733 5.617 0.472516
thorax -7.15085 2.40935 -5.20096
lowerneck 25.1471 -6.53448 -29.0967
upperneck -8.6519 -20.0088 42.2815
head 1.35825 -14.0586 21.9814
rclavicle -5.76476e-015 2.62396e-014
rhumerus -27.1613 -1.72169 -86.4709
rradius 27.2164
rwrist 22.7678
rhand -10.039 -0.460481
rfingers 7.12502
rthumb 15.9461 -29.8241
lclavicle -5.76476e-015 2.62396e-014
lhumerus -44.1691 -5.77262 87.1754
lradius 36.6606
lwrist 40.659
lhand -15.5977 -13.0042
lfingers 7.12502
lthumb 10.5882 16.7091
rfemur -7.64582 1.23773 34.7579
rtibia 23.1381
rfoot -21.5847 13.6632
rtoes -3.95934
lfemur -44.8661 3.02011 -9.77903
ltibia 35.6044
lfoot -9.11413 5.76946
ltoes -30.1349
303
root -6.86022 16.2644 2.61692 -172.153 2.58435 -171.723
lowerback 2.44072 3.50498 9.33336
upperback -6.20335 5.73037 0.431183
thorax -7.11106 2.46941 -5.21604
lowerneck 25.1273 -6.52347 -29.1638
upperneck -8.58514 -19.9991 42.2336
head 1.37642 -14.0398 21.9634
rclavicle -3.50358e-015 -3.4191e-014
rhumerus -27.1258 -2.06315 -86.5077
rradius 27.3843
rwrist 22.7048
rhand -10.0864 -0.447894
rfingers 7.12502
rthumb 15.9005 -29.8151
lclavicle -3.50358e-015 -3.4191e-014
lhumerus -44.2401 -5.47533 86.9631
lradius 36.4083
lwrist 40.5731
lhand -15.541 -13.1558
lfingers 7.12502
lthumb 10.6429 16.5547
rfemur -6.78609 1.51526 34.5775
rtibia 22.4342
rfoot -21.5116 13.6877
rtoes -4.60413
lfemur -44.8567 2.61326 -9.49626
ltibia 33.4164
lfoot -9.0959 5.33036
ltoes -30.5329
304
root -6.87538 16.2661 2.46566 -172.04 2.86276 -171.77
lowerback 2.35154 3.60318 9.29245
upperback -6.22973 5.85131 0.399604
thorax -7.06917 2.53335 -5.22676
lowerneck 25.1053 -6.50932 -29.2367
upperneck -8.52547 -19.9853 42.1912
head 1.39308 -14.0195 21.9512
rclavicle 7.1314e-015 -1.63003e-014
rhumerus -27.1161 -2.43987 -86.5362
rradius 27.5505
rwrist 22.5957
rhand -10.1648 -0.457348
rfingers 7.12502
rthumb 15.8249 -29.8306
lclavicle 7.1314e-015 -1.63003e-014
lhumerus -44.3066 -5.19458 86.7715
lradius 36.1228
lwrist 40.4202
lhand -15.5754 -13.1885
lfingers 7.12502
lthumb 10.6098 16.5236
rfemur -5.91618 1.81798 34.4141
rtibia 21.7165
rfoot -21.3861 13.7278
rtoes -5.2538
lfemur -44.852 2.26337 -9.21329
ltibia 31.3983
lfoot -9.19018 4.88795
ltoes -30.7331
305
root -6.89097 16.2675 2.31281 -171.926 3.1528 -171.806
lowerback 2.25701 3.70443 9.26112
upperback -6.26161 5.97838 0.373538
thorax -7.02925 2.60022 -5.23674
lowerneck 25.0899 -6.49103 -29.3134
upperneck -8.47047 -19.9688 42.1513
head 1.40693 -13.9989 21.9435
rclavicle -5.64051e-015 2.38542e-014
rhumerus -27.1436 -2.84648 -86.5575
rradius 27.716
rwrist 22.442
rhand -10.2743 -0.483265
rfingers 7.12502
rthumb 15.7195 -29.8648
lclavicle -5.64051e-015 2.38542e-014
lhumerus -44.3796 -4.94109 86.6068
lradius 35.7995
lwrist 40.2269
lhand -15.6965 -13.1353
lfingers 7.12502
lthumb 10.4929 16.5828
rfemur -5.03618 2.12518 34.256
rtibia 20.9819
rfoot -21.2173 13.8036
rtoes -5.91737
lfemur -44.8688 1.98964 -8.96277
ltibia 29.5921
lfoot -9.37916 4.4102
ltoes -30.7623
306
root -6.90688 16.2685 2.15804 -171.809 3.45613 -171.832
lowerback 2.15021 3.81059 9.23619
upperback -6.29932 6.1131 0.35193
thorax -6.98755 2.67118 -5.24476
lowerneck 25.0829 -6.46822 -29.393
upperneck -8.42205 -19.9492 42.1157
head 1.41729 -13.9784 21.9416
rclavicle 2.6339e-015 2.78299e-015
rhumerus -27.2133 -3.27677 -86.5723
rradius 27.8824
rwrist 22.2598
rhand -10.4089 -0.522513
rfingers 7.12502
rthumb 15.5899 -29.9142
lclavicle 2.6339e-015 2.78299e-015
lhumerus -44.4651 -4.70786 86.4607
lradius 35.4413
lwrist 39.9697
lhand -15.8711 -13.002
lfingers 7.12502
lthumb 10.3245 16.7246
rfemur -4.14752 2.43856 34.1001
rtibia 20.2269
rfoot -20.9973 13.9331
rtoes -6.54376
lfemur -44.9227 1.82449 -8.77239
ltibia 28.035
lfoot -9.63732 3.86767
ltoes -30.6819
307
root -6.92332 16.2685 2.00132 -171.685 3.76903 -171.835
lowerback 2.03119 3.92084 9.23377
upperback -6.34402 6.25618 0.3383
thorax -6.94439 2.74595 -5.25598
lowerneck 25.0872 -6.44112 -29.4748
upperneck -8.38158 -19.927 42.0837
head 1.42322 -13.9583 21.9452
rclavicle -1.95306e-014 -2.90226e-014
rhumerus -27.328 -3.72303 -86.5796
rradius 28.0512
rwrist 22.0589
rhand -10.5636 -0.564029
rfingers 7.12502
rthumb 15.4409 -29.9673
lclavicle -1.95306e-014 -2.90226e-014
lhumerus -44.5685 -4.48691 86.3279
lradius 35.0583
lwrist 39.6675
lhand -16.0692 -12.8035
lfingers 7.12502
lthumb 10.1334 16.9325
rfemur -3.25097 2.74417 33.9609
rtibia 19.454
rfoot -20.7372 14.1124
rtoes -7.19422
lfemur -45.021 1.78907 -8.64944
ltibia 26.7469
lfoot -9.94719 3.22877
ltoes -30.544
308
root -6.94063 16.2677 1.84229 -171.556 4.07906 -171.824
lowerback 1.88338 4.03263 9.2531
upperback -6.38476 6.39971 0.326517
thorax -6.87859 2.82152 -5.27361
lowerneck 25.0835 -6.41831 -29.5509
upperneck -8.3499 -19.9049 42.0542
head 1.42806 -13.9379 21.9478
rclavicle 9.96408e-015 -2.54444e-014
rhumerus -27.4689 -4.17849 -86.5833
rradius 28.2217
rwrist 21.8595
rhand -10.7311 -0.609614
rfingers 7.12502
rthumb 15.2795 -30.0252
lclavicle 9.96408e-015 -2.54444e-014
lhumerus -44.6587 -4.26705 86.1932
lradius 34.6379
lwrist 39.3169
lhand -16.2186 -12.5982
lfingers 7.12502
lthumb 9.98931 17.1448
rfemur -2.3495 3.0218 33.8245
rtibia 18.6718
rfoot -20.4388 14.3523
rtoes -7.84245
lfemur -45.161 1.8722 -8.61496
ltibia 25.7313
lfoot -10.2954 2.48095
ltoes -30.3759
309
root -6.95864 16.2659 1.68128 -171.416 4.38456 -171.801
lowerback 1.71005 4.14497 9.28972
upperback -6.42689 6.54338 0.317259
thorax -6.79837 2.89765 -5.29494
lowerneck 25.0746 -6.39677 -29.6213
upperneck -8.32455 -19.8799 42.0264
head 1.43041 -13.9161 21.9502
rclavicle -1.28465e-014 4.77083e-015
rhumerus -27.6432 -4.64154 -86.5805
rradius 28.3968
rwrist 21.6748
rhand -10.8863 -0.656289
rfingers 7.12502
rthumb 15.13 -30.0832
lclavicle -1.28465e-014 4.77083e-015
lhumerus -44.7494 -4.04299 86.0565
lradius 34.1915
lwrist 38.9302
lhand -16.3037 -12.426
lfingers 7.12502
lthumb 9.90716 17.3209
rfemur -1.46138 3.28015 33.6926
rtibia 17.9025
rfoot -20.1118 14.6306
rtoes -8.49276
lfemur -45.3318 2.0458 -8.65409
ltibia 24.9692
lfoot -10.6538 1.65373
ltoes -30.2279
310
root -6.97751 16.2627 1.51856 -171.263 4.6758 -171.762
lowerback 1.51907 4.25475 9.3497
upperback -6.47557 6.68486 0.308837
thorax -6.71351 2.97229 -5.32594
lowerneck 25.0632 -6.37713 -29.6827
upperneck -8.30005 -19.8545 41.997
head 1.43129 -13.8941 21.9493
rclavicle 2.75068e-014 -7.55382e-015
rhumerus -27.8556 -5.11289 -86.5716
rradius 28.5744
rwrist 21.5064
rhand -11.0234 -0.704435
rfingers 7.12502
rthumb 14.9979 -30.1413
lclavicle 2.75068e-014 -7.55382e-015
lhumerus -44.8454 -3.82001 85.9191
lradius 33.73
lwrist 38.5203
lhand -16.3437 -12.2597
lfingers 7.12502
lthumb 9.8686 17.489
rfemur -0.604699 3.5134 33.5681
rtibia 17.1771
rfoot -19.7708 14.9385
rtoes -9.11609
lfemur -45.508 2.25517 -8.73553
ltibia 24.4285
lfoot -10.9936 0.809581
ltoes -30.124
311
root -6.99722 16.2585 1.35425 -171.1 4.95638 -171.735
lowerback 1.31393 4.36117 9.40115
upperback -6.53379 6.82115 0.294779
thorax -6.63168 3.04486 -5.35637
lowerneck 25.0586 -6.3522 -29.7353
upperneck -8.2804 -19.8205 41.969
head 1.42497 -13.8692 21.9512
rclavicle -2.127e-014 1.63003e-014
rhumerus -28.1067 -5.59565 -86.5519
rradius 28.7455
rwrist 21.3571
rhand -11.1252 -0.731827
rfingers 7.12502
rthumb 14.8999 -30.176
lclavicle -2.127e-014 1.63003e-014
lhumerus -44.9493 -3.58799 85.7755
lradius 33.2499
lwrist 38.0868
lhand -16.3175 -12.135
lfingers 7.12502
lthumb 9.89386 17.6125
rfemur 0.197751 3.73245 33.4213
rtibia 16.5355
rfoot -19.4327 15.2591
rtoes -9.67695
lfemur -45.6537 2.43648 -8.84893
ltibia 24.0705
lfoot -11.2894 0.044487
ltoes -30.0565
